<svg id="Warstwa_1" data-name="Warstwa 1" xmlns="http://www.w3.org/2000/svg" xmlns:xlink="http://www.w3.org/1999/xlink" viewBox="0 0 1000 1000"><defs><style>.cls-1{fill:url(#linear-gradient);}.cls-2{fill:#317750;}.cls-3{fill:#ffd2a8;}.cls-4{fill:#6b6b6b;}.cls-4,.cls-5,.cls-7,.cls-8{fill-rule:evenodd;}.cls-5{fill:url(#linear-gradient-2);}.cls-6{fill:#fff;}.cls-7{fill:#d85865;}.cls-8{fill:#545454;}.cls-9{fill:#444;}</style><linearGradient id="linear-gradient" x2="1000" y2="1000" gradientUnits="userSpaceOnUse"><stop offset="0.15" stop-color="#6ac596"/><stop offset="0.36" stop-color="#5db386"/><stop offset="0.79" stop-color="#3c865d"/><stop offset="0.91" stop-color="#31774f"/></linearGradient><linearGradient id="linear-gradient-2" x1="635.86" y1="717.78" x2="635.86" y2="635.34" gradientUnits="userSpaceOnUse"><stop offset="0" stop-color="#565c5e"/><stop offset="0.49" stop-color="#363f45"/><stop offset="1" stop-color="#343d43"/></linearGradient></defs><title>green</title><g id="_3" data-name="3"><rect class="cls-1" width="1000" height="1000"/><path class="cls-2" d="M1000,532.46C876.14,406.82,657.32,199.35,657.32,199.35l-170.85,388L531.55,1000H1000Z"/><path class="cls-3" d="M622.55,677.36c0,153.11-254.89,182.8-254.89.37,0-65.5-5.5-125.26-5.5-125.26l261.77-.22S622.55,612.23,622.55,677.36Z"/><path class="cls-4" d="M924.14,1000c-18.56-96.51-52.4-227.57-101.93-257.19a56.28,56.28,0,0,0-12.13-3.44c-88-16.44-129.71-23.6-165.37-51-1.9-13.3-6.82-20.54-11.57-24.51V838.36H330.75V697.75c-33.09,20-74.62,27.23-151.67,41.62A56.69,56.69,0,0,0,167,742.81C115.7,770.65,82.62,902.91,64.61,1000Z"/><path class="cls-5" d="M633.14,685c3.28-3.88,5.18-8,5.45-12.2a17.75,17.75,0,0,0-5.45-9Z"/><polygon class="cls-6" points="509.79 759.43 493.23 780.95 472.99 754.51 443.54 756.35 359.51 800 428.05 1000 562.99 1000 628.17 811.08 561.92 748.97 509.79 759.43"/><path class="cls-7" d="M401.6,819.24c26,15.73,135,22.08,179.39-5.29s-24.91-50.5-24.91-50.5-87.9,51.17-104.63,6.55C436.88,731.1,401.6,819.24,401.6,819.24Z"/><path class="cls-6" d="M458.88,742.36c-20.4-7.79-84.54-38.18-91-69.49l-.15-17a14.41,14.41,0,0,0-11.7,5.88c-14,18.51-35.12,36.8-35.12,36.8l77.91,155h4.11c5.08-11.25,29.1-62.67,48-82.4,23-24,27.75-4.31,48,27.52C485.86,769.88,487.86,753.43,458.88,742.36Z"/><path class="cls-6" d="M531.43,742.36c20.41-7.79,84.52-38.18,91.06-69.49l.15-17a14.4,14.4,0,0,1,11.68,5.88c14,18.51,35.12,36.8,35.12,36.8l-77.89,155h-4.11c-5.09-11.25-29.12-62.67-48-82.4-23-24-27.75-4.31-48,27.52C504.44,769.88,502.47,753.43,531.43,742.36Z"/><path class="cls-7" d="M449.83,768.53c17.11-5,64.39-7.2,84.71,2.19,8.51,25.62-7.58,75.88-7.58,75.88-11.94,2.55-62.09,0-62.09,0C452.91,836,444,787.32,449.83,768.53Z"/><polygon class="cls-7" points="552.61 1000 526.96 846.6 464.87 846.6 451.27 1000 552.61 1000"/><path class="cls-8" d="M295.4,703.08C291.86,741.61,284,814,285,854.9c21.17,4.87,34.94,3.7,54.06,2.92-17,9.66-41.2,19.07-57.76,23.37,9.3,39.16,25.36,79.53,44.44,118.81H440c-66-186.75-99.52-309.19-81.42-341.62C335.38,673.26,327.78,681.13,295.4,703.08Z"/><path class="cls-8" d="M701.84,845.87c1-40.94-4.17-103.1-7.53-142.79-32.38-22-40-29.82-63.22-44.7,18.08,32.39-15.56,155-81.44,341.62H664c19-39.22,35.09-79.57,44.4-118.81-16.56-4.3-40.76-13.71-57.76-23.37C673.76,850.63,680.67,850.74,701.84,845.87Z"/><path class="cls-3" d="M694.56,385c-2.5-.08-16.26.75-28.88,27.55-2.28-42.56-.31-76.35-20.58-96.14s-31.55,10.91-96.28,6.84c-73.91-4.66-122.18-42-139.73-63,0,0-83-.95-82.13,151.34-10.8-27.81-23.55-27.4-23.55-27.4v-.05c-12.52,6-16.24,33.52-8.14,63.89,7.86,29.45,24.11,51.29,37.77,51.8,14.57,55.41,43.12,110.75,70.2,138.32,31.62,32.18,47.2,46,94.32,46.55v0c.23,0,.43,0,.66,0s.45,0,.68,0v0c47.1-.56,62.71-14.37,94.31-46.55,27.1-27.57,55.62-82.91,70.21-138.32,13.65-.51,29.9-22.35,37.77-51.8C709,418.83,705.85,392.37,694.56,385Z"/><path class="cls-9" d="M409.09,260.17c17.55,21,65.82,58.4,139.73,63,64.73,4.07,76-26.62,96.28-6.84s18.3,53.58,20.58,96.14C679.6,382.94,695,385,695,385c8.45-58.85-.18-157.48-44.62-197.89-51.91-47.2-191.57-78.41-265.59-13.14-39.47,5.54-88.68,47.85-86,125.73s4.61,84.44,4.61,84.44,12.75-.41,23.55,27.4C326,259.22,409.09,260.17,409.09,260.17Z"/></g></svg>