<svg id="Warstwa_1" data-name="Warstwa 1" xmlns="http://www.w3.org/2000/svg" xmlns:xlink="http://www.w3.org/1999/xlink" viewBox="0 0 1000 1000"><defs><style>.cls-1{fill:url(#linear-gradient);}.cls-2{fill:#9b2c27;}.cls-3{fill:#ffd2a8;}.cls-4{fill:#545454;}.cls-4,.cls-5,.cls-7,.cls-8{fill-rule:evenodd;}.cls-5{fill:url(#linear-gradient-2);}.cls-6{fill:#fff;}.cls-7{fill:#f2c444;}.cls-8{fill:#474747;}.cls-9{fill:#444;}</style><linearGradient id="linear-gradient" x2="1000" y2="1000" gradientUnits="userSpaceOnUse"><stop offset="0.13" stop-color="#dd574b"/><stop offset="0.33" stop-color="#d45146"/><stop offset="0.65" stop-color="#bc4139"/><stop offset="1" stop-color="#9b2c27"/></linearGradient><linearGradient id="linear-gradient-2" x1="635.86" y1="717.78" x2="635.86" y2="635.34" gradientUnits="userSpaceOnUse"><stop offset="0" stop-color="#565c5e"/><stop offset="0.49" stop-color="#363f45"/><stop offset="1" stop-color="#343d43"/></linearGradient></defs><title>red</title><g id="_3" data-name="3"><rect class="cls-1" width="1000" height="1000"/><path class="cls-2" d="M1000,532.46C876.14,406.82,657.33,199.35,657.33,199.35l-170.86,388L531.55,1000H1000Z"/><path class="cls-3" d="M622.56,677.36c0,153.11-254.91,182.8-254.91.37,0-65.5-5.48-125.26-5.48-125.26l261.76-.22S622.56,612.23,622.56,677.36Z"/><path class="cls-4" d="M924.14,1000c-18.57-96.51-52.4-227.58-101.93-257.19a56.45,56.45,0,0,0-12.13-3.44c-88-16.44-129.71-23.6-165.38-51-1.88-13.3-6.81-20.54-11.56-24.51V838.36H330.76V697.75c-33.1,20-74.63,27.23-151.68,41.62A56.86,56.86,0,0,0,167,742.81C115.71,770.65,82.62,902.91,64.62,1000Z"/><path class="cls-5" d="M633.14,685c3.28-3.88,5.18-8,5.45-12.21a17.79,17.79,0,0,0-5.45-9Z"/><polygon class="cls-6" points="509.78 759.43 493.23 780.95 472.99 754.51 443.54 756.35 359.52 800 428.05 1000 562.98 1000 628.16 811.08 561.92 748.97 509.78 759.43"/><path class="cls-7" d="M401.6,819.24c26,15.73,135,22.08,179.38-5.29s-24.9-50.5-24.9-50.5S468.19,814.62,451.45,770C436.88,731.1,401.6,819.24,401.6,819.24Z"/><path class="cls-6" d="M458.88,742.36c-20.39-7.79-84.54-38.18-91-69.49l-.15-17a14.43,14.43,0,0,0-11.7,5.88c-14,18.51-35.11,36.8-35.11,36.8l77.9,155h4.1c5.09-11.26,29.11-62.67,48-82.4,23-24,27.75-4.31,48,27.52C485.86,769.88,487.87,753.43,458.88,742.36Z"/><path class="cls-6" d="M531.44,742.36c20.39-7.79,84.51-38.18,91-69.49l.15-17a14.42,14.42,0,0,1,11.68,5.88c14,18.51,35.12,36.8,35.12,36.8l-77.89,155h-4.11c-5.1-11.26-29.12-62.67-48-82.4-23-24-27.74-4.31-48,27.52C504.44,769.88,502.47,753.43,531.44,742.36Z"/><path class="cls-7" d="M449.83,768.53c17.11-5,64.38-7.2,84.71,2.19,8.51,25.62-7.58,75.88-7.58,75.88-11.94,2.55-62.09,0-62.09,0C452.91,836,444,787.32,449.83,768.53Z"/><polygon class="cls-7" points="552.61 1000 526.96 846.6 464.87 846.6 451.27 1000 552.61 1000"/><path class="cls-8" d="M295.4,703.08C291.86,741.61,284,814,285,854.89c21.17,4.88,35,3.71,54.07,2.93-17,9.66-41.21,19.07-57.77,23.37,9.3,39.16,25.36,79.53,44.44,118.81H440c-66-186.75-99.53-309.19-81.43-341.62C335.38,673.25,327.78,681.13,295.4,703.08Z"/><path class="cls-8" d="M701.84,845.86c1-40.93-4.17-103.09-7.53-142.78-32.38-22-40-29.83-63.22-44.7,18.08,32.39-15.55,155-81.44,341.62H664c19.06-39.22,35.09-79.57,44.4-118.81-16.56-4.3-40.76-13.71-57.76-23.37C673.76,850.63,680.68,850.74,701.84,845.86Z"/><path class="cls-3" d="M694.56,385c-2.51-.08-16.27.75-28.88,27.55-2.28-42.56-.31-76.35-20.58-96.14s-31.55,10.9-96.27,6.84c-73.92-4.66-122.19-42-139.74-63,0,0-83-.95-82.13,151.33-10.81-27.81-23.54-27.39-23.54-27.39v-.05c-12.53,6-16.25,33.52-8.14,63.89,7.86,29.45,24.1,51.29,37.76,51.8,14.58,55.41,43.12,110.75,70.2,138.32,31.62,32.18,47.2,46,94.32,46.55v0c.22,0,.43,0,.66,0s.45,0,.68,0v0c47.1-.56,62.71-14.37,94.3-46.55,27.11-27.57,55.63-82.91,70.21-138.32,13.66-.51,29.91-22.35,37.78-51.8C708.94,418.82,705.84,392.37,694.56,385Z"/><path class="cls-9" d="M409.09,260.17c17.55,21,65.82,58.4,139.74,63,64.72,4.06,76-26.62,96.27-6.84s18.3,53.58,20.58,96.14C679.6,382.94,695,385,695,385c8.45-58.85-.19-157.48-44.62-197.89-51.91-47.2-191.57-78.41-265.58-13.14-39.48,5.54-88.69,47.85-86,125.73s4.62,84.44,4.62,84.44,12.73-.42,23.54,27.39C326,259.22,409.09,260.17,409.09,260.17Z"/></g></svg>