<svg xmlns="http://www.w3.org/2000/svg" xmlns:xlink="http://www.w3.org/1999/xlink" viewBox="0 0 1000 1000"><defs><style>.cls-1{fill:none;}.cls-2{fill:url(#linear-gradient);}.cls-3{fill:#9b481b;}.cls-4{fill:#db4453;}.cls-5{fill:#fff;}.cls-6{clip-path:url(#clip-path);}.cls-7{fill:red;}</style><linearGradient id="linear-gradient" x1="-202.5" y1="476.87" x2="1158.38" y2="476.87" gradientUnits="userSpaceOnUse"><stop offset="0.13" stop-color="#dd8512"/><stop offset="0.33" stop-color="#d98112"/><stop offset="0.53" stop-color="#c71"/><stop offset="0.73" stop-color="#b86510"/><stop offset="0.94" stop-color="#9b4c0e"/><stop offset="1" stop-color="#91430d"/></linearGradient><clipPath id="clip-path"><circle class="cls-1" cx="477.94" cy="476.87" r="238.15"/></clipPath></defs><title>Obszar roboczy 1</title><g id="Warstwa_10" data-name="Warstwa 10"><rect class="cls-2" x="-202.5" y="-203.57" width="1360.88" height="1360.88"/></g><g id="Warstwa_11" data-name="Warstwa 11"><path class="cls-3" d="M599.06,218.3l583.81,446.37s15,355.19,19.06,353.82-15,185.08-15,185.08L879.4,1168.19l21.77-6.8h9.53l29.94-1.36L374.51,743.6l-6.8-353.83Z"/></g><g id="Warstwa_2" data-name="Warstwa 2"><circle class="cls-4" cx="477.94" cy="476.87" r="285.78"/></g><g id="Warstwa_3" data-name="Warstwa 3"><circle class="cls-5" cx="477.94" cy="476.87" r="238.15"/></g><g id="Warstwa_5" data-name="Warstwa 5"><g class="cls-6"><circle class="cls-5" cx="477.94" cy="478.23" r="238.15"/><rect x="472.5" y="235.99" width="10.89" height="29.94"/><rect x="472.5" y="689.16" width="10.89" height="29.94"/><rect x="245.23" y="463.26" width="10.89" height="29.94" transform="translate(-227.55 728.9) rotate(-90)"/><rect x="698.4" y="463.26" width="10.89" height="29.94" transform="translate(225.62 1182.07) rotate(-90)"/></g></g><g id="Warstwa_9" data-name="Warstwa 9"><rect class="cls-7" x="451.18" y="529.39" width="152.41" height="2.92" transform="translate(568.99 -216.28) rotate(48)"/></g><g id="Warstwa_6" data-name="Warstwa 6"><circle cx="477.94" cy="476.87" r="10.21"/><rect x="472.5" y="320.36" width="10.89" height="160.58"/></g><g id="Warstwa_7" data-name="Warstwa 7"><rect x="484.74" y="474.82" width="119.76" height="4.08"/></g></svg>