<svg id="Warstwa_1" data-name="Warstwa 1" xmlns="http://www.w3.org/2000/svg" xmlns:xlink="http://www.w3.org/1999/xlink" viewBox="0 0 1000 1000"><defs><style>.cls-1{fill:none;}.cls-2{clip-path:url(#clip-path);}.cls-3{fill:url(#linear-gradient);}.cls-4{fill:#285c70;}.cls-5{fill:#ffd2a8;}.cls-6{fill:#545454;}.cls-10,.cls-12,.cls-16,.cls-19,.cls-6,.cls-7,.cls-9{fill-rule:evenodd;}.cls-7{fill:url(#linear-gradient-2);}.cls-8{fill:#fff;}.cls-9{fill:#a855af;}.cls-10{fill:#474747;}.cls-11{fill:#444;}.cls-12,.cls-15{fill:#006837;}.cls-13{fill:#c4a953;}.cls-14,.cls-16{fill:#a86529;}.cls-17{fill:#ffe9bb;}.cls-18{fill:#e07228;}.cls-19{fill:#c94a40;}</style><clipPath id="clip-path"><rect class="cls-1" width="1000" height="1001"/></clipPath><linearGradient id="linear-gradient" x1="-0.25" y1="0.25" x2="1000.25" y2="1000.75" gradientUnits="userSpaceOnUse"><stop offset="0.13" stop-color="#4a8cae"/><stop offset="0.31" stop-color="#4586a5"/><stop offset="0.61" stop-color="#37748d"/><stop offset="0.98" stop-color="#205865"/><stop offset="1" stop-color="#1f5663"/></linearGradient><linearGradient id="linear-gradient-2" x1="927.87" y1="413.14" x2="927.87" y2="393.69" gradientUnits="userSpaceOnUse"><stop offset="0" stop-color="#565c5e"/><stop offset="0.49" stop-color="#363f45"/><stop offset="1" stop-color="#343d43"/></linearGradient></defs><title>Obszar roboczy 1</title><g class="cls-2"><rect class="cls-3" width="1000" height="1001"/><g id="_3" data-name="3"><path class="cls-4" d="M1014,369.42c-29.3-29.64-81.06-78.59-81.06-78.59l-40.41,91.53,10.66,97.36H1014Z"/><path class="cls-5" d="M924.72,403.6c0,36.12-60.3,43.13-60.3.09,0-15.45-1.29-29.55-1.29-29.55l61.91-.06S924.72,388.24,924.72,403.6Z"/><path class="cls-6" d="M996.06,479.72C991.66,457,983.66,426,971.94,419a14.08,14.08,0,0,0-2.86-.81c-20.82-3.88-30.69-5.56-39.12-12-.45-3.14-1.61-4.84-2.74-5.78v41.17H855.7V408.41c-7.83,4.71-17.66,6.43-35.88,9.82A14.39,14.39,0,0,0,817,419c-12.12,6.57-20,37.77-24.21,60.68Z"/><path class="cls-7" d="M927.22,405.4a4.93,4.93,0,0,0,1.29-2.88,4.22,4.22,0,0,0-1.29-2.12Z"/><polygon class="cls-8" points="898.04 422.96 894.13 428.04 889.34 421.8 882.37 422.24 862.5 432.54 878.71 479.72 910.63 479.72 926.04 435.15 910.38 420.5 898.04 422.96"/><path class="cls-9" d="M872.45,437.07c6.17,3.72,31.95,5.21,42.44-1.24S909,423.91,909,423.91s-20.8,12.07-24.75,1.55C880.8,416.28,872.45,437.07,872.45,437.07Z"/><path class="cls-8" d="M886,418.94c-4.82-1.84-20-9-21.53-16.4l0-4a3.39,3.39,0,0,0-2.76,1.39,69.15,69.15,0,0,1-8.31,8.68l18.43,36.56h1c1.2-2.65,6.88-14.78,11.36-19.44,5.44-5.65,6.56-1,11.35,6.5C892.38,425.43,892.86,421.55,886,418.94Z"/><path class="cls-8" d="M903.17,418.94c4.82-1.84,20-9,21.53-16.4l0-4a3.39,3.39,0,0,1,2.76,1.39,69.15,69.15,0,0,0,8.31,8.68l-18.42,36.56h-1c-1.2-2.65-6.88-14.78-11.36-19.44-5.44-5.65-6.56-1-11.36,6.5C896.78,425.43,896.31,421.55,903.17,418.94Z"/><path class="cls-9" d="M883.86,425.11c4-1.17,15.23-1.7,20,.52,2,6-1.79,17.9-1.79,17.9-2.83.6-14.69,0-14.69,0C884.59,441,882.47,429.54,883.86,425.11Z"/><polygon class="cls-9" points="908.17 479.72 902.11 443.53 887.42 443.53 884.2 479.72 908.17 479.72"/><path class="cls-10" d="M847.33,409.67c-.83,9.09-2.69,26.16-2.45,35.82,5,1.15,8.27.87,12.79.69A64,64,0,0,1,844,451.69a138.52,138.52,0,0,0,10.51,28h27c-15.61-44.06-23.55-72.94-19.26-80.6C856.79,402.63,855,404.49,847.33,409.67Z"/><path class="cls-10" d="M943.47,443.36c.24-9.66-1-24.33-1.78-33.69-7.66-5.18-9.45-7-15-10.55,4.27,7.65-3.68,36.59-19.27,80.6h27a138.23,138.23,0,0,0,10.51-28,63.86,63.86,0,0,1-13.67-5.51C936.83,444.48,938.47,444.51,943.47,443.36Z"/><path class="cls-5" d="M941.75,334.62c-.59,0-3.85.17-6.83,6.5-.54-10-.07-18-4.87-22.68s-7.46,2.57-22.77,1.61c-17.49-1.1-28.9-9.92-33-14.87,0,0-19.65-.23-19.43,35.7-2.56-6.56-5.57-6.46-5.57-6.46h0c-3,1.4-3.84,7.9-1.93,15.07,1.86,6.95,5.71,12.1,8.94,12.22,3.44,13.07,10.2,26.13,16.6,32.63,7.48,7.59,11.17,10.85,22.31,11h.32c11.14-.14,14.83-3.4,22.31-11,6.41-6.5,13.15-19.56,16.6-32.63,3.23-.12,7.08-5.27,8.94-12.22S944.42,336.37,941.75,334.62Z"/><path class="cls-11" d="M874.23,305.18c4.15,4.95,15.56,13.78,33,14.87,15.31,1,18-6.28,22.77-1.61s4.33,12.64,4.87,22.68c3.29-7,6.93-6.5,6.93-6.5,2-13.88,0-37.15-10.55-46.69C919,276.8,886,269.44,868.48,284.83c-9.34,1.31-21,11.29-20.34,29.67s1.09,19.92,1.09,19.92,3-.1,5.57,6.46C854.58,305,874.23,305.18,874.23,305.18Z"/></g><polyline class="cls-4" points="323 278 881 800 593 989 94 343"/><polyline class="cls-4" points="722 694 773 491 608 427 463 506"/><polyline class="cls-4" points="915 284 1034 398 1048 694 828 647"/><g id="_3-2" data-name="3"><path class="cls-12" d="M499.76,820.17c-12.74-66-36-155.75-69.94-176a28.63,28.63,0,0,0-3.72-1.3,47.14,47.14,0,0,0-4.6-1.06c-3.74-.62-52.06-9.11-77.48-16.63a197.28,197.28,0,0,1-41.62-17.84,19.38,19.38,0,0,0-5.95-8.92A19.82,19.82,0,0,0,283.07,594q-36.48-1.16-74.33-1.49-27.88-.23-55,0l-43.11,14.87c-47,14.23-88,25.56-122.08,34.47-4.57,1.2-6.32,1.28-8.32,2.36-35.16,19.05-57.87,109.56-70.22,176Z"/><path class="cls-5" d="M292.83,599.37c0,104.78-174.9,125.1-174.9.25,0-44.82-3.77-85.72-3.77-85.72l179.61-.15S292.83,554.8,292.83,599.37Z"/><path class="cls-5" d="M342.24,399.27c-1.73-.06-11.17.51-19.82,18.85-1.57-29.13-.22-52.25-14.13-65.8s-21.64,7.47-66.05,4.68c-50.72-3.18-83.84-28.77-95.88-43.14,0,0-57-.64-56.36,103.57-7.41-19-16.15-18.75-16.15-18.75v0c-8.59,4.08-11.14,22.94-5.58,43.72,5.39,20.16,16.54,35.1,25.91,35.45,10,37.92,29.59,75.79,48.17,94.66,21.69,22,32.38,31.48,64.71,31.86H208c32.32-.38,43-9.84,64.71-31.86,18.6-18.87,38.17-56.74,48.17-94.66,9.37-.35,20.52-15.29,25.93-35.45C352.1,422.44,350,404.34,342.24,399.27Z"/><path class="cls-13" d="M146.36,313.86c12,14.37,45.16,40,95.88,43.14,44.41,2.79,52.17-18.21,66.05-4.68s12.56,36.67,14.13,65.8c9.55-20.24,20.11-18.85,20.11-18.85,5.8-40.27-.13-107.77-30.62-135.42-35.61-32.31-131.44-53.66-182.23-9-27.08,3.79-60.85,32.74-59,86s3.16,57.79,3.16,57.79,8.74-.28,16.15,18.75C89.38,313.22,146.36,313.86,146.36,313.86Z"/></g><rect class="cls-14" x="752" y="743" width="357" height="309"/><rect class="cls-15" x="-47" y="749" width="341" height="312"/><g id="_5" data-name="5"><path class="cls-16" d="M1117,833c-13.49-70.07-38-165.22-74-186.72a41,41,0,0,0-8.8-2.5c-31.11-5.8-54.25-10-72.78-15.11a15.89,15.89,0,0,0-3.78-.51c-4.85-.64-7.46-.89-9.63-1.16-4-.5-6.9-1.12-11-2-11.52-2.47-27.91-7.68-45.14-12.31-16.55-4.45-20.51-4.73-24.82-4.51-12.21.6-22.84,5.39-22.56,6.76,0,0,.19.89,39.1-3a10.87,10.87,0,0,0-2.25,20.3l-36.85,2.25-22.55,17.3L807.64,639,773.8,664.57l-17.29-12.78-29.32-32.33c-9.55,5.75-61,4.17-73.73,7.91-19.29,5.7-43.64,10.12-77.37,16.41a41.92,41.92,0,0,0-8.79,2.5C530.08,666.49,506.07,762.52,493,833Z"/><path class="cls-17" d="M896.54,590.57c0,111.16-185,132.71-185,.27,0-47.56-4-90.94-4-90.94l190-.16S896.54,543.28,896.54,590.57Z"/><path class="cls-17" d="M947.32,409.8c-1.82-.06-11.81.54-21,20-1.65-30.89-.22-55.43-14.94-69.8s-22.91,7.93-69.89,5c-53.66-3.39-84-37.59-96.75-52.83,0,0-65,6.37-64.32,116.93-7.85-20.19-17.1-19.89-17.1-19.89v0c-9.09,4.34-11.79,24.34-5.9,46.38,5.69,21.38,17.49,37.24,27.41,37.61,10.58,40.23,31.3,80.41,51,100.42,22.95,23.36,34.26,33.39,68.46,33.8h1c34.19-.41,45.53-10.44,68.46-33.8,19.68-20,40.39-60.19,51-100.42,9.92-.37,21.71-16.23,27.42-37.61C957.76,434.38,955.51,415.18,947.32,409.8Z"/><path class="cls-11" d="M947.63,409.81s-6.57-.86-14.19,8.41a220,220,0,0,1-13.52,35c-2.38-25.9-10.7-57.38-29.09-71a77,77,0,0,1,4.45,37.57c-35.75-24.74-47.22-39.43-71.67-54,13.69,14.4,20.75,26.74,23.15,41.76-22.91-19.12-58.48-39.59-74.92-63-2.6-1.48-5.07-3-7.4-4.52C742,349.26,716.65,359.75,707,373.28c-14.94,20.92-16.5,51.77-14.5,81.46-4.55-5.35-9.51-15.81-13.52-29.23-7.49-16.59-15.61-16.33-15.61-16.33s-1.38-4.76-3.35-61.3,33.77-87.26,62.43-91.28c53.73-47.39,155.12-24.73,192.81,9.54C947.5,295.48,953.77,367.08,947.63,409.81Z"/></g><g id="_7" data-name="7"><path class="cls-18" d="M514.56,710.52c-7.26,0-15.12-.06-23.73-.15-17.36-.2-92.82-1.87-144.43-6.06-15.58-1.25-40.65-29.83-49.6-64.77-10.64-41.53,6-175.24,56.72-249,17.27-25.08,36.17-39.39,56.21-42.52l3.53-.55,2.37-2.59c19.82-21.73,49-33.7,82.12-33.7,69.27,0,140.59,56,174.15,150,31.17,87.27,22.48,188.17-6.42,226.18-6.35,8.35-13.92,12.88-23.13,13.88-11.33,1.2-20.91,2.39-29.37,3.42C585.24,708,565.23,710.52,514.56,710.52Z"/><path class="cls-5" d="M609.09,732c-59.05-13.68-36.51-112.6-36.51-112.6l-154.78,3s14.86,97.27-20.72,113.66c-47.76,22,8.73,185.57,57.66,265.06h77.41C576,916.54,628.8,736.57,609.09,732Z"/><path class="cls-19" d="M273.85,753.11c-19.75,9.09-33.78,26-55.85,90.32-8.17,23.83-37,122.07-46,157.59l427.79.14c-41.07-31.88-89.74-77-126.31-133.94a387.76,387.76,0,0,1-23.31-40.62C422.71,770.83,412.84,715.12,411,715.55c-.08,0-.19.16-.19.84a260.32,260.32,0,0,1-48.61,20.13C316.62,750.19,297.65,742.16,273.85,753.11Z"/><path class="cls-19" d="M828,1001c-13.81-44.59-38.33-122-41.91-133.14C768.67,813.46,745.68,762.16,719.35,747a47.11,47.11,0,0,0-9.37-2.53c-68.08-12.2-100.69-17.4-128.27-37.72-.05-.37-.09-.55-.12-.55-.35,0,.06,19.51.08,20.79.31,16.17-4,56.81-21.39,101.77a345.42,345.42,0,0,1-40.44,74.65c-32.57,45.92-71.14,77.2-102.79,97.71Z"/><path class="cls-5" d="M633,485.47a8.57,8.57,0,0,0-2.16-.24c-4.41,8.82-9,15.71-11.65,21-1.66-30.15-37.64-36-98.1-53.88-52.34-15.45-78.57-39.16-91.54-54.06,0,0-54-.55-60.13,88.51v2.54l-.14-.12c-.31,5.15-.46,10.58-.42,16.31-4.4-10.86-10.29-15.78-14.71-18-7.14,6.19-8.91,24.17-3.63,43.84,5.61,20.89,17.23,36.36,27,36.71,10.41,39.28,32,77.41,50.13,98,45.72,51.87,89.43,52.09,135.67,0,18.22-20.55,39.71-58.74,50.11-98,9.76-.35,21.35-15.82,27-36.71C646.49,508.59,643.19,488.08,633,485.47Z"/></g></g><rect id="_Cięcie_na_plasterki_" data-name="&lt;Cięcie na plasterki&gt;" class="cls-1" width="1000" height="1001"/></svg>